# xmcd
#
# Track frame offsets:
#	150
#	11198
#	19929
#	28106
#	37548
#	47061
#	55317
#	65146
#	72767
#	83458
#	92629
#	103350
#	114195
#	125533
#
# Disc length: 1798 seconds
#
# Revision: 0
# Processed by: cddbd v1.5.2PL0 Copyright (c) Steve Scherf et al.
# Submitted via: EZCDAudioConverter 1.0.8.1
#
DISCID=b407040e
DTITLE=Mike Bell and The Belltones - Payback
DYEAR=2012
DGENRE=
TTITLE0=Shake Some Action
TTITLE1=Bye Bye Baby Blue
TTITLE2=Payback
TTITLE3=Dark Side Of The Moon
TTITLE4=Half Hearted
TTITLE5=Cryin’ All Night
TTITLE6=Loretta
TTITLE7=Mean Machine
TTITLE8=Railroad Station Blues
TTITLE9=Give That Dog A Bone
TTITLE10=Corruption Blues
TTITLE11=Broken Mind
TTITLE12=Boomerang Baby
TTITLE13=Lovelight
EXTD=
EXTT0=
EXTT1=
EXTT2=
EXTT3=
EXTT4=
EXTT5=
EXTT6=
EXTT7=
EXTT8=
EXTT9=
EXTT10=
EXTT11=
EXTT12=
EXTT13=
PLAYORDER=
